<svg xmlns="http://www.w3.org/2000/svg" viewBox="0 0 1280 512" role="img" aria-labelledby="title desc">
  <title id="title">single_header wordmark</title>
  <desc id="desc">A single_header wordmark with a header file badge and monospace project name.</desc>
  <rect width="1280" height="512" rx="84" fill="#071217"/>

  <g transform="translate(40 40)">
    <rect width="432" height="432" rx="68" fill="#0A171D" stroke="#17313C" stroke-width="4"/>

    <g fill="none" stroke-linecap="round" stroke-linejoin="round">
      <path d="M48 142 H118 C144 142 154 172 180 172" stroke="#29E6C8" stroke-width="9"/>
      <path d="M48 190 H126 C150 190 160 204 180 204" stroke="#75F07C" stroke-width="9"/>
      <path d="M48 242 H126 C150 242 160 228 180 228" stroke="#29E6C8" stroke-width="9"/>
      <path d="M48 290 H118 C144 290 154 260 180 260" stroke="#75F07C" stroke-width="9"/>
      <path d="M180 216 H236" stroke="#F4FBFF" stroke-width="16"/>
    </g>

    <path d="M250 100 H336 L378 142 V332 H250 Z" fill="#10202A" stroke="#F4FBFF" stroke-width="10" stroke-linejoin="round"/>
    <path d="M336 100 V144 H378" fill="none" stroke="#F4FBFF" stroke-width="10" stroke-linejoin="round"/>
    <path d="M272 190 H356" stroke="#29E6C8" stroke-width="10" stroke-linecap="round"/>
    <path d="M272 230 H356" stroke="#75F07C" stroke-width="10" stroke-linecap="round"/>
    <text x="314" y="294"
          fill="#F4FBFF"
          font-family="ui-monospace, SFMono-Regular, Menlo, Monaco, Consolas, 'Liberation Mono', monospace"
          font-size="38"
          font-weight="700"
          text-anchor="middle">.hpp</text>
  </g>

  <g font-family="ui-monospace, SFMono-Regular, Menlo, Monaco, Consolas, 'Liberation Mono', monospace"
     font-size="88"
     font-weight="700"
     letter-spacing="0">
    <text x="536" y="278" fill="#F4FBFF">single</text>
    <text x="858" y="278" fill="#75F07C">_</text>
    <text x="912" y="278" fill="#29E6C8">header</text>
  </g>

  <path d="M540 324 H1232" stroke="#17313C" stroke-width="8" stroke-linecap="round"/>
  <path d="M540 324 H832" stroke="#29E6C8" stroke-width="8" stroke-linecap="round"/>
  <path d="M832 324 H912" stroke="#75F07C" stroke-width="8" stroke-linecap="round"/>
</svg>
